<svg width="29" height="29" viewBox="0 0 29 29" fill="none" xmlns="http://www.w3.org/2000/svg">
<path fill-rule="evenodd" clip-rule="evenodd" d="M4.01549 0.000135884L3.90321 6.90039e-05C3.3936 -0.0004173 2.9543 -0.00083667 2.56512 0.0926006C1.34162 0.386324 0.386324 1.34162 0.0926006 2.56512C-0.00083667 2.9543 -0.0004173 3.3936 6.90039e-05 3.90321L0.000135884 4.01549V9.36929L6.90039e-05 9.48156C-0.0004173 9.99118 -0.00083667 10.4305 0.0926006 10.8197C0.386324 12.0432 1.34162 12.9985 2.56512 13.2922C2.9543 13.3856 3.3936 13.3852 3.90321 13.3847L4.01549 13.3846H9.36929L9.48156 13.3847C9.99118 13.3852 10.4305 13.3856 10.8197 13.2922C12.0432 12.9985 12.9985 12.0432 13.2922 10.8197C13.3856 10.4305 13.3852 9.99118 13.3847 9.48156L13.3846 9.36929V4.01549L13.3847 3.90321C13.3852 3.3936 13.3856 2.9543 13.2922 2.56512C12.9985 1.34162 12.0432 0.386324 10.8197 0.0926006C10.4305 -0.00083667 9.99118 -0.0004173 9.48156 6.90039e-05L9.36929 0.000135884H4.01549ZM3.08589 2.26172C3.1819 2.23865 3.32891 2.23089 4.01549 2.23089H9.36929C10.0559 2.23089 10.2029 2.23865 10.2989 2.26172C10.7067 2.35962 11.0252 2.67804 11.1231 3.08589C11.1461 3.1819 11.1539 3.32891 11.1539 4.01549V9.36929C11.1539 10.0559 11.1461 10.2029 11.1231 10.2989C11.0252 10.7067 10.7067 11.0252 10.2989 11.1231C10.2029 11.1461 10.0559 11.1539 9.36929 11.1539H4.01549C3.32891 11.1539 3.1819 11.1461 3.08589 11.1231C2.67804 11.0252 2.35962 10.7067 2.26172 10.2989C2.23865 10.2029 2.23089 10.0559 2.23089 9.36929V4.01549C2.23089 3.32891 2.23865 3.1819 2.26172 3.08589C2.35962 2.67804 2.67804 2.35962 3.08589 2.26172ZM19.6307 0.000135884L19.5185 6.90039e-05C19.0089 -0.0004173 18.5696 -0.00083667 18.1804 0.0926006C16.9569 0.386324 16.0016 1.34162 15.7079 2.56512C15.6144 2.9543 15.6148 3.3936 15.6153 3.90321L15.6154 4.01549V9.36929L15.6153 9.48156C15.6148 9.99118 15.6144 10.4305 15.7079 10.8197C16.0016 12.0432 16.9569 12.9985 18.1804 13.2922C18.5696 13.3856 19.0089 13.3852 19.5185 13.3847L19.6307 13.3846H24.9845L25.0968 13.3847C25.6065 13.3852 26.0457 13.3856 26.435 13.2922C27.6583 12.9985 28.6138 12.0432 28.9075 10.8197C29.0008 10.4305 29.0006 9.99118 28.9999 9.48156V9.36929V4.01549V3.90321C29.0006 3.3936 29.0008 2.9543 28.9075 2.56512C28.6138 1.34162 27.6583 0.386324 26.435 0.0926006C26.0457 -0.00083667 25.6065 -0.0004173 25.0968 6.90039e-05L24.9845 0.000135884H19.6307ZM18.7011 2.26172C18.7972 2.23865 18.9442 2.23089 19.6307 2.23089H24.9845C25.6712 2.23089 25.8182 2.23865 25.9141 2.26172C26.3219 2.35962 26.6404 2.67804 26.7384 3.08589C26.7613 3.1819 26.7691 3.32891 26.7691 4.01549V9.36929C26.7691 10.0559 26.7613 10.2029 26.7384 10.2989C26.6404 10.7067 26.3219 11.0252 25.9141 11.1231C25.8182 11.1461 25.6712 11.1539 24.9845 11.1539H19.6307C18.9442 11.1539 18.7972 11.1461 18.7011 11.1231C18.2933 11.0252 17.9749 10.7067 17.877 10.2989C17.8539 10.2029 17.8461 10.0559 17.8461 9.36929V4.01549C17.8461 3.32891 17.8539 3.1819 17.877 3.08589C17.9749 2.67804 18.2933 2.35962 18.7011 2.26172ZM3.90321 15.6153L4.01549 15.6154H9.36929L9.48156 15.6153C9.99118 15.6148 10.4305 15.6144 10.8197 15.7079C12.0432 16.0016 12.9985 16.9569 13.2922 18.1804C13.3856 18.5696 13.3852 19.0089 13.3847 19.5185L13.3846 19.6307V24.9845L13.3847 25.0968C13.3852 25.6065 13.3856 26.0457 13.2922 26.435C12.9985 27.6583 12.0432 28.6138 10.8197 28.9075C10.4305 29.0008 9.99118 29.0006 9.48156 28.9999H9.36929H4.01549H3.90321C3.3936 29.0006 2.9543 29.0008 2.56512 28.9075C1.34162 28.6138 0.386324 27.6583 0.0926006 26.435C-0.00083667 26.0457 -0.0004173 25.6065 6.90039e-05 25.0968L0.000135884 24.9845V19.6307L6.90039e-05 19.5185C-0.0004173 19.0089 -0.00083667 18.5696 0.0926006 18.1804C0.386324 16.9569 1.34162 16.0016 2.56512 15.7079C2.9543 15.6144 3.3936 15.6148 3.90321 15.6153ZM4.01549 17.8461C3.32891 17.8461 3.1819 17.8539 3.08589 17.877C2.67804 17.9749 2.35962 18.2933 2.26172 18.7011C2.23865 18.7972 2.23089 18.9442 2.23089 19.6307V24.9845C2.23089 25.6712 2.23865 25.8182 2.26172 25.9141C2.35962 26.3219 2.67804 26.6404 3.08589 26.7384C3.1819 26.7613 3.32891 26.7691 4.01549 26.7691H9.36929C10.0559 26.7691 10.2029 26.7613 10.2989 26.7384C10.7067 26.6404 11.0252 26.3219 11.1231 25.9141C11.1461 25.8182 11.1539 25.6712 11.1539 24.9845V19.6307C11.1539 18.9442 11.1461 18.7972 11.1231 18.7011C11.0252 18.2933 10.7067 17.9749 10.2989 17.877C10.2029 17.8539 10.0559 17.8461 9.36929 17.8461H4.01549ZM19.6307 15.6154L19.5185 15.6153C19.0089 15.6148 18.5696 15.6144 18.1804 15.7079C16.9569 16.0016 16.0016 16.9569 15.7079 18.1804C15.6144 18.5696 15.6148 19.0089 15.6153 19.5185L15.6154 19.6307V24.9845L15.6153 25.0968C15.6148 25.6065 15.6144 26.0457 15.7079 26.435C16.0016 27.6583 16.9569 28.6138 18.1804 28.9075C18.5696 29.0008 19.0089 29.0006 19.5185 28.9999H19.6307H24.9845H25.0968C25.6065 29.0006 26.0457 29.0008 26.435 28.9075C27.6583 28.6138 28.6138 27.6583 28.9075 26.435C29.0008 26.0457 29.0006 25.6065 28.9999 25.0968V24.9845V19.6307V19.5185C29.0006 19.0089 29.0008 18.5696 28.9075 18.1804C28.6138 16.9569 27.6583 16.0016 26.435 15.7079C26.0457 15.6144 25.6065 15.6148 25.0968 15.6153L24.9845 15.6154H19.6307ZM18.7011 17.877C18.7972 17.8539 18.9442 17.8461 19.6307 17.8461H24.9845C25.6712 17.8461 25.8182 17.8539 25.9141 17.877C26.3219 17.9749 26.6404 18.2933 26.7384 18.7011C26.7613 18.7972 26.7691 18.9442 26.7691 19.6307V24.9845C26.7691 25.6712 26.7613 25.8182 26.7384 25.9141C26.6404 26.3219 26.3219 26.6404 25.9141 26.7384C25.8182 26.7613 25.6712 26.7691 24.9845 26.7691H19.6307C18.9442 26.7691 18.7972 26.7613 18.7011 26.7384C18.2933 26.6404 17.9749 26.3219 17.877 25.9141C17.8539 25.8182 17.8461 25.6712 17.8461 24.9845V19.6307C17.8461 18.9442 17.8539 18.7972 17.877 18.7011C17.9749 18.2933 18.2933 17.9749 18.7011 17.877Z" fill="#CD1382"/>
</svg>
