<svg width="31" height="31" viewBox="0 0 31 31" fill="none" xmlns="http://www.w3.org/2000/svg">
<path d="M22.0907 30.0005V26.7783C22.0907 25.0692 21.5352 23.43 20.5463 22.2215C19.5575 21.0129 18.2164 20.334 16.818 20.334H6.27267C4.87427 20.334 3.53315 21.0129 2.54433 22.2215C1.55551 23.43 1 25.0692 1 26.7783V30.0005" stroke="#6E2FB0" stroke-width="2" stroke-linecap="round" stroke-linejoin="round"/>
<path d="M11.5457 13.8886C14.4577 13.8886 16.8183 11.0034 16.8183 7.44431C16.8183 3.88522 14.4577 1 11.5457 1C8.63365 1 6.27299 3.88522 6.27299 7.44431C6.27299 11.0034 8.63365 13.8886 11.5457 13.8886Z" stroke="#6E2FB0" stroke-width="2" stroke-linecap="round" stroke-linejoin="round"/>
<path d="M30.0001 29.999V26.7769C29.9992 25.349 29.6104 23.9619 28.8946 22.8335C28.1789 21.705 27.1767 20.899 26.0456 20.542" stroke="#6E2FB0" stroke-width="2" stroke-linecap="round" stroke-linejoin="round"/>
<path d="M20.7725 1.20898C21.9066 1.56391 22.9119 2.37009 23.6298 3.50044C24.3476 4.63079 24.7373 6.021 24.7373 7.45191C24.7373 8.88283 24.3476 10.273 23.6298 11.4034C22.9119 12.5337 21.9066 13.3399 20.7725 13.6948" stroke="#6E2FB0" stroke-width="2" stroke-linecap="round" stroke-linejoin="round"/>
</svg>
