<svg width="31" height="38" viewBox="0 0 31 38" fill="none" xmlns="http://www.w3.org/2000/svg">
<path d="M19.125 1H4.625C3.66359 1 2.74156 1.37928 2.06174 2.05442C1.38192 2.72955 1 3.64522 1 4.6V33.4C1 34.3548 1.38192 35.2705 2.06174 35.9456C2.74156 36.6207 3.66359 37 4.625 37H26.375C27.3364 37 28.2584 36.6207 28.9383 35.9456C29.6181 35.2705 30 34.3548 30 33.4V11.8L19.125 1Z" stroke="#6E2FB0" stroke-width="2" stroke-linecap="round" stroke-linejoin="round"/>
<path d="M19.125 1V11.8H30" stroke="#6E2FB0" stroke-width="2" stroke-linecap="round" stroke-linejoin="round"/>
<path d="M22.75 20.7998H8.25" stroke="#6E2FB0" stroke-width="2" stroke-linecap="round" stroke-linejoin="round"/>
<path d="M22.75 28H8.25" stroke="#6E2FB0" stroke-width="2" stroke-linecap="round" stroke-linejoin="round"/>
<path d="M11.875 13.6001H10.0625H8.25" stroke="#6E2FB0" stroke-width="2" stroke-linecap="round" stroke-linejoin="round"/>
</svg>
